<?xml version="1.0" encoding="UTF-8" standalone="no"?><!DOCTYPE svg PUBLIC "-//W3C//DTD SVG 1.1//EN" "http://www.w3.org/Graphics/SVG/1.1/DTD/svg11.dtd"><svg width="100%" height="100%" viewBox="0 0 2084 2084" version="1.1" xmlns="http://www.w3.org/2000/svg" xmlns:xlink="http://www.w3.org/1999/xlink" xml:space="preserve" xmlns:serif="http://www.serif.com/" style="fill-rule:evenodd;clip-rule:evenodd;stroke-linejoin:round;stroke-miterlimit:2;"><g><path d="M1702.09,613.249c-6.138,-0 -12.208,-2.782 -16.19,-8.057c-6.738,-8.919 -4.98,-21.618 3.931,-28.373c0.854,-0.651 59.07,-45.704 82.784,-116.788c3.543,-10.627 15.032,-16.359 25.642,-12.816c10.619,3.542 16.359,15.023 12.817,25.641c-27.865,83.521 -93.978,134.179 -96.785,136.292c-3.652,2.765 -7.947,4.101 -12.199,4.101Z" style="fill:#dd528b;fill-rule:nonzero;"/><path d="M1295.53,1094.15c73.519,-71.295 108.148,-174.827 90.631,-278.163c-10.492,-61.886 -27.756,-120.889 -51.741,-177.101c-27.738,-64.997 -74.837,-134.111 -145.042,-185.623c3.728,-86.606 2.012,-276.989 -81.99,-310.738c-84.602,-33.995 -227.471,154.477 -288.351,242.275c-44.098,10.728 -98.416,30.579 -159.127,56.813c-60.955,25.692 -112.873,51.174 -151.129,75.598c-105.561,-16.815 -340.438,-43.996 -374.416,40.556c-33.733,83.968 102.415,216.869 167.649,274.13c-11.396,86.353 5.918,168.199 33.665,233.213c23.985,56.212 54.64,109.491 92.067,159.887c62.241,83.808 160.412,130.408 262.312,127.069c1.108,29.429 7.355,58.605 19.293,86.572c62.232,145.811 254.83,203.351 430.189,128.514c175.359,-74.838 267.08,-253.706 204.848,-399.517c-11.87,-27.823 -28.517,-52.4 -48.858,-73.485Z" style="fill:#b2b8c4;fill-rule:nonzero;"/><path d="M737.42,455.973c39.71,93.048 44.808,179.984 11.532,194.179c-33.344,14.228 -92.592,-49.593 -132.302,-142.641c-5.436,-12.758 -10.229,-25.363 -14.313,-37.69c38.501,-18.531 77.755,-35.288 117.803,-50.193c6.078,11.481 11.861,23.664 17.28,36.345Z" style="fill:#95a1b3;fill-rule:nonzero;"/><path d="M594.703,480.744c39.676,92.981 44.876,179.95 11.532,194.179c-32.059,13.687 -88.373,-45.239 -127.922,-132.8c18.413,-14.263 38.222,-27.257 59.222,-38.831c18.016,-9.883 36.193,-19.411 54.573,-28.432c0.921,1.961 1.741,3.889 2.595,5.884Z" style="fill:#95a1b3;fill-rule:nonzero;"/><path d="M857.793,379.25c36.142,89.43 39.921,171.285 7.71,185.031c-33.344,14.229 -92.541,-49.694 -132.225,-142.675c-0.854,-1.995 -1.674,-3.922 -2.452,-5.943c22.074,-8.074 44.495,-15.539 67.059,-22.472c19.877,-6.12 39.896,-10.711 59.908,-13.941Z" style="fill:#95a1b3;fill-rule:nonzero;"/><path d="M1099.01,315.31c-0,0 18.921,17.695 30.917,41.469c11.135,21.939 4.887,44.994 -9.857,59.789c-55.554,-26.572 -116.56,-41.638 -179.02,-43.531c-4.735,-12.471 -4.743,-26.699 1.369,-40.006c24.509,-53.491 63.112,-116.374 109.112,-117.143c80.138,-1.268 47.479,99.422 47.479,99.422Z" style="fill:#fff;fill-rule:nonzero;"/><path d="M264.867,671.288c-0,-0 -0.313,25.904 8.547,51.013c8.141,23.224 29.108,34.654 49.99,34.248c19.259,-58.495 50.582,-112.966 92.431,-159.38c-5.732,-12.039 -15.995,-21.889 -29.835,-26.682c-55.579,-19.318 -127.685,-34.95 -160.065,-2.266c-56.365,56.982 38.932,103.067 38.932,103.067Z" style="fill:#fff;fill-rule:nonzero;"/><path d="M1406.15,812.601c-10.695,-63.06 -28.559,-124.185 -53.085,-181.666c-20.755,-48.637 -63.72,-126.341 -143.047,-187.592c3.669,-108.562 -5.072,-283.457 -95.102,-319.633c-90.318,-36.268 -219.804,115.689 -312.539,249.572l33.327,23.08c114.023,-164.614 215.221,-254.703 264.095,-235.03c46.448,18.659 72.073,112.848 70.298,254.678c-18.278,-11.042 -38.07,-21.145 -59.578,-29.912c-10.365,-4.227 -22.192,0.753 -26.419,11.118c-4.228,10.365 0.752,22.192 11.117,26.419c131.98,53.795 194.838,162.94 220.565,223.211c23.274,54.556 40.242,112.603 50.396,172.536c19.073,112.51 -29.066,226.863 -122.647,291.327c-9.224,6.357 -11.549,18.98 -5.191,28.195c3.931,5.706 10.263,8.775 16.706,8.775c3.965,0 7.972,-1.166 11.481,-3.584c106.516,-73.375 161.316,-203.495 139.623,-331.494Z" style="fill:#6f818c;fill-rule:nonzero;"/><path d="M739.238,1325.92c-111.301,22.961 -227.176,-21.39 -295.216,-113.001c-36.235,-48.79 -66.409,-101.198 -89.7,-155.77c-25.727,-60.263 -61.032,-181.151 -8.564,-313.681c4.125,-10.407 -0.981,-22.184 -11.388,-26.309c-10.399,-4.118 -22.185,0.98 -26.31,11.388c-8.539,21.575 -14.931,42.846 -19.606,63.661c-83.731,-78.685 -156.869,-173.238 -135.311,-226.88c19.606,-48.815 154.655,-59.578 352.426,-28.077l6.375,-40.031c-160.835,-25.608 -360.179,-37.208 -396.414,52.991c-36.227,90.149 84.053,217.378 165.036,289.772c-10.669,99.668 15.708,184.447 36.472,233.085c24.535,57.489 56.306,112.679 94.443,164.022c63.839,85.964 164.724,135.345 269.202,135.345c22.184,0 44.555,-2.232 66.739,-6.806c10.965,-2.265 18.016,-12.985 15.759,-23.951c-2.266,-10.965 -12.978,-18.016 -23.943,-15.758Z" style="fill:#6f818c;fill-rule:nonzero;"/><path d="M415.725,617.281c-4.912,0 -9.832,-1.775 -13.729,-5.368c-8.235,-7.584 -8.751,-20.409 -1.167,-28.643c18.988,-20.603 40.395,-40.581 63.619,-59.383c37.503,-30.326 100.614,-64.287 187.592,-100.945c86.479,-37.368 154.663,-59.434 202.489,-65.538c29.658,-3.753 58.901,-5.385 86.919,-4.844c11.194,0.22 20.087,9.469 19.876,20.662c-0.22,11.059 -9.249,19.876 -20.265,19.876c-0.127,0 -0.262,0 -0.397,-0.008c-26.048,-0.516 -53.313,1.023 -81.018,4.532c-44.038,5.613 -108.536,26.681 -191.693,62.604c-83.638,35.254 -143.469,67.254 -178.005,95.17c-21.686,17.559 -41.646,36.184 -59.307,55.35c-3.999,4.337 -9.444,6.535 -14.914,6.535Z" style="fill:#6f818c;fill-rule:nonzero;"/><path d="M1123.11,813.557c-7.879,-0 -15.37,-4.616 -18.65,-12.318c-4.396,-10.298 0.389,-22.201 10.686,-26.598l88.508,-37.773c10.306,-4.405 22.21,0.389 26.598,10.686c4.396,10.297 -0.389,22.201 -10.687,26.597l-88.508,37.774c-2.595,1.107 -5.292,1.632 -7.947,1.632Z" style="fill:#95a1b3;fill-rule:nonzero;"/><path d="M1147.12,869.879c-10.737,0 -19.698,-8.437 -20.231,-19.284c-0.541,-11.185 8.083,-20.688 19.259,-21.229l83.867,-4.083c11.092,-0.541 20.688,8.074 21.229,19.259c0.549,11.176 -8.074,20.679 -19.259,21.228l-83.858,4.084c-0.339,0.017 -0.677,0.025 -1.007,0.025Z" style="fill:#95a1b3;fill-rule:nonzero;"/><path d="M504.859,1077.4c-7.879,-0 -15.37,-4.616 -18.659,-12.318c-4.387,-10.289 0.398,-22.201 10.695,-26.597l88.508,-37.766c10.289,-4.405 22.21,0.389 26.598,10.686c4.396,10.289 -0.389,22.201 -10.687,26.598l-88.516,37.765c-2.587,1.108 -5.293,1.632 -7.939,1.632Z" style="fill:#95a1b3;fill-rule:nonzero;"/><path d="M556.422,1153.68c-5.369,-0 -10.729,-2.122 -14.719,-6.332c-7.693,-8.133 -7.347,-20.959 0.786,-28.66l60.973,-57.726c8.124,-7.702 20.949,-7.347 28.651,0.777c7.694,8.133 7.347,20.959 -0.786,28.66l-60.972,57.726c-3.915,3.712 -8.928,5.555 -13.933,5.555Z" style="fill:#95a1b3;fill-rule:nonzero;"/><path d="M899.811,664.989c-7.871,0 -15.362,-4.616 -18.651,-12.318c-4.396,-10.297 0.398,-22.201 10.687,-26.597l46.431,-19.817c10.306,-4.405 22.209,0.397 26.605,10.686c4.388,10.298 -0.397,22.201 -10.686,26.597l-46.439,19.817c-2.596,1.108 -5.293,1.632 -7.947,1.632Z" style="fill:#fff;fill-rule:nonzero;"/><path d="M594.154,795.431c-7.871,-0 -15.362,-4.625 -18.651,-12.327c-4.396,-10.289 0.389,-22.201 10.687,-26.589l46.439,-19.816c10.306,-4.405 22.21,0.397 26.597,10.686c4.397,10.297 -0.389,22.201 -10.686,26.597l-46.439,19.817c-2.596,1.107 -5.293,1.632 -7.947,1.632Z" style="fill:#fff;fill-rule:nonzero;"/><path d="M543.96,962.302c-2.511,-0 -5.072,-0.474 -7.549,-1.471c-10.382,-4.168 -15.421,-15.97 -11.253,-26.361c11.05,-27.485 32.135,-49.026 59.383,-60.651c27.257,-11.633 57.388,-11.954 84.873,-0.913c10.39,4.176 15.429,15.979 11.252,26.369c-4.176,10.382 -15.97,15.429 -26.368,11.253c-17.433,-7.009 -36.557,-6.806 -53.846,0.574c-17.289,7.373 -30.664,21.043 -37.672,38.485c-3.179,7.904 -10.788,12.715 -18.82,12.715Z" style="fill:#5f5c5d;fill-rule:nonzero;"/><path d="M983.542,774.701c-2.511,0.008 -5.073,-0.465 -7.55,-1.463c-10.382,-4.176 -15.42,-15.979 -11.252,-26.36c22.809,-56.746 87.519,-84.349 144.255,-61.565c10.391,4.177 15.43,15.979 11.253,26.369c-4.176,10.382 -15.97,15.429 -26.36,11.244c-35.999,-14.465 -77.061,3.061 -91.527,39.059c-3.179,7.914 -10.787,12.716 -18.819,12.716Z" style="fill:#5f5c5d;fill-rule:nonzero;"/><path d="M974.902,908.118c18.168,40.75 17.914,83.943 2.68,116.526c-7.998,17.052 -20.062,31.086 -35.728,40.454c-2.714,1.716 -5.622,3.187 -8.666,4.54c-41.671,18.582 -91.991,0.651 -125.715,-40.539c-3.382,-4.176 -6.595,-8.513 -9.613,-13.189c-4.81,-7.186 -9.012,-14.896 -12.707,-23.173c-8.741,-19.597 -12.343,-37.748 -11.616,-54.192c1.573,-38.695 26.826,-67.854 63.61,-84.255c0.922,-0.415 1.911,-0.854 2.858,-1.201c2.764,-1.226 5.588,-2.316 8.403,-3.23c37.436,-13.053 75.726,-7.82 103.887,22.793c8.598,9.393 16.198,21.102 22.607,35.466Z" style="fill:#6f818c;fill-rule:nonzero;"/><path d="M977.582,1024.64c-7.998,17.052 -20.062,31.086 -35.728,40.454c-2.714,1.716 -5.622,3.187 -8.666,4.54c-41.671,18.582 -91.991,0.651 -125.715,-40.539c-3.382,-4.176 -6.595,-8.513 -9.613,-13.189c11.177,-15.073 27.316,-27.197 46.558,-35.778c49.804,-22.21 102.838,-13.037 133.164,44.512Z" style="fill:#e27fa3;fill-rule:nonzero;"/><path d="M924.886,1051.15c-19.58,8.725 -42.694,7.144 -65.073,-4.472c-23.909,-12.428 -43.878,-34.511 -56.221,-62.199c-11.565,-25.921 -13.104,-49.102 -4.574,-68.894c7.744,-17.957 23.765,-32.769 46.313,-42.821c13.983,-6.239 27.646,-9.384 40.429,-9.384c7.828,-0 15.327,1.175 22.37,3.551c20.425,6.873 36.641,23.503 48.206,49.432c24.763,55.536 10.661,116.002 -31.45,134.787Zm68.471,-151.298c-16.139,-36.185 -41.138,-60.854 -72.301,-71.346c-22.708,-7.643 -47.707,-7.533 -73.206,0.144l-8.471,-18.997l5.91,-2.52c10.297,-4.396 15.074,-16.308 10.686,-26.605c-4.396,-10.298 -16.3,-15.083 -26.606,-10.687l-49.711,21.221c-10.297,4.396 -15.083,16.308 -10.686,26.605c3.288,7.702 10.779,12.31 18.65,12.31c2.655,-0 5.352,-0.516 7.947,-1.632l6.518,-2.773l8.734,19.589c-22.751,13.84 -39.533,32.371 -49.027,54.378c-13.02,30.19 -11.371,65.267 4.768,101.452c16.072,36.023 42.551,65.022 74.567,81.651c18.786,9.765 38.205,14.677 57.134,14.677c14.872,0 29.447,-3.043 43.134,-9.147c62.52,-27.883 85.828,-112.367 51.96,-188.32Z" style="fill:#6f818c;fill-rule:nonzero;"/><path d="M1170.68,1227.53c49.306,-189.689 174.125,-515.121 277.014,-442.498c102.88,72.622 -102.39,563.699 -102.39,563.699l-174.624,-121.201Z" style="fill:#b2b8c4;fill-rule:nonzero;"/><path d="M1345.29,1369.01c-2.603,-0 -5.25,-0.508 -7.811,-1.573c-10.323,-4.32 -15.201,-16.19 -10.881,-26.521c0.507,-1.217 51.419,-123.484 89.1,-252.758c65.656,-225.232 36.066,-275.433 20.299,-286.568c-12.183,-8.598 -24.391,-10.204 -38.425,-5.072c-74.246,27.18 -167.125,224.529 -210.597,391.789c-2.815,10.83 -13.882,17.332 -24.72,14.516c-10.83,-2.815 -17.332,-13.882 -14.516,-24.72c38.484,-148.06 133.062,-382.008 235.892,-419.646c26.521,-9.715 52.704,-6.248 75.742,10.018c30.182,21.305 41.933,66.121 35.914,136.993c-4.337,51.107 -18.05,116.484 -40.75,194.323c-38.332,131.422 -90.021,255.523 -90.537,256.765c-3.255,7.77 -10.779,12.454 -18.71,12.454Z" style="fill:#6f818c;fill-rule:nonzero;"/><path d="M864.615,1358.14c-171.073,-95.635 -492.404,-230.667 -511.156,-106.144c-18.743,124.532 477.855,316.09 477.855,316.09l33.301,-209.946Z" style="fill:#b2b8c4;fill-rule:nonzero;"/><path d="M831.305,1588.36c-2.426,0 -4.895,-0.439 -7.287,-1.369c-1.26,-0.482 -126.62,-49.027 -248.024,-112.274c-71.913,-37.461 -128.607,-72.8 -168.512,-105.019c-55.333,-44.698 -79.563,-84.18 -74.059,-120.711c3.821,-25.363 17.864,-44.672 40.623,-55.823c43.928,-21.542 122.925,-12.682 234.793,26.318c81.964,28.567 181.277,73.789 265.668,120.972c9.765,5.462 13.265,17.814 7.795,27.578c-5.462,9.782 -17.822,13.257 -27.578,7.804c-174.818,-97.732 -395.746,-179.164 -462.84,-146.277c-10.864,5.327 -16.528,13.181 -18.379,25.456c-2.875,19.107 12.926,75.235 221.215,183.755c119.409,62.206 242.656,109.923 243.881,110.396c10.45,4.033 15.649,15.767 11.617,26.208c-3.103,8.049 -10.78,12.978 -18.913,12.986Z" style="fill:#6f818c;fill-rule:nonzero;"/><path d="M914.141,1358.84l381.517,-152.761c30.546,-12.234 64.633,-12.234 95.179,-0l381.517,152.761l-181.717,266.04l-518.866,20.434l-157.63,-286.474Z" style="fill:#767576;fill-rule:nonzero;"/><path d="M1184.11,1481.5c-8.522,-0 -16.452,-5.419 -19.259,-13.958c-16.334,-49.813 -16.545,-113.415 -0.49,-147.951c4.709,-10.145 16.765,-14.558 26.918,-9.841c10.154,4.718 14.559,16.774 9.841,26.927c-10.297,22.151 -12.36,73.663 2.257,118.234c3.484,10.635 -2.308,22.083 -12.943,25.574c-2.105,0.685 -4.227,1.015 -6.324,1.015Z" style="fill:#5f5c5d;fill-rule:nonzero;"/><path d="M1772.3,1379.09c-2.511,-0 -5.056,-0.474 -7.525,-1.463l-381.458,-152.744c-25.828,-10.331 -54.294,-10.331 -80.113,0.009l-381.535,152.744c-10.398,4.151 -22.192,-0.897 -26.352,-11.287c-4.159,-10.39 0.888,-22.193 11.287,-26.352l381.534,-152.744c35.559,-14.212 74.703,-14.212 110.245,-0l381.458,152.744c10.39,4.159 15.446,15.962 11.278,26.352c-3.17,7.922 -10.771,12.741 -18.819,12.741Z" style="fill:#a484d8;fill-rule:nonzero;"/><path d="M1373.34,1522.09l399.018,-163.244l0,364.854c0,28.085 -16.054,53.685 -41.333,65.918l-334.486,161.858c-33.657,16.291 -72.918,16.291 -106.575,-0l-334.486,-161.858c-25.279,-12.233 -41.333,-37.833 -41.333,-65.918l-0,-364.854l399.018,163.244c19.284,7.888 40.893,7.888 60.177,-0Z" style="fill:#b9a6dd;fill-rule:nonzero;"/><path d="M1373.34,1522.09l0.034,-0l-0.034,-0Zm-438.922,-133.054l0,334.664c0,20.172 11.726,38.89 29.886,47.674l334.486,161.857c28.263,13.671 60.668,13.671 88.923,0l334.486,-161.857c18.16,-8.784 29.894,-27.502 29.894,-47.674l0,-334.664l-371.076,151.814l-0.009,-0c-24.348,9.959 -51.165,9.959 -75.513,-0l-371.077,-151.814Zm408.834,595.014c-21.187,0 -42.382,-4.777 -62.114,-14.321l-334.487,-161.867c-32.058,-15.505 -52.771,-48.544 -52.771,-84.162l-0,-364.854c-0,-6.755 3.365,-13.071 8.97,-16.833c5.613,-3.762 12.723,-4.489 18.971,-1.927l399.018,163.244c14.449,5.909 30.368,5.909 44.825,-0l399.018,-163.244c6.248,-2.562 13.358,-1.835 18.971,1.927c5.614,3.762 8.979,10.078 8.979,16.833l-0,364.854c-0,35.618 -20.722,68.657 -52.772,84.162l-334.495,161.867c-19.732,9.544 -40.927,14.321 -62.113,14.321Z" style="fill:#a484d8;fill-rule:nonzero;"/><path d="M1343.22,1893.98c-11.193,-0 -20.265,-9.08 -20.265,-20.273l0.017,-258.516c0,-11.194 9.08,-20.274 20.274,-20.274c11.193,0 20.265,9.08 20.265,20.274l-0.017,258.516c-0,11.201 -9.08,20.273 -20.274,20.273Z" style="fill:#a484d8;fill-rule:nonzero;"/><path d="M1294.79,1121.73c16.216,20.629 67.347,46.854 141.61,62.748c94.908,20.307 171.158,11.912 180.238,-8.328c2.587,-5.765 3.846,-12.436 -4.321,-22.158c-34.874,-41.536 -179.062,-70.002 -284.411,-43.337c-10.669,2.705 -22.091,6.298 -33.116,11.075Zm-14.161,160.243c22.032,19.293 49.889,34.866 77.805,45.932c36.836,14.601 76.808,22.683 109.746,22.083c30.106,-0.516 51.842,-8.057 59.62,-20.688c0.312,-0.507 0.422,-0.82 0.439,-0.904c-0.389,-7.516 -31.636,-32.49 -103.151,-46.406c-47.572,-9.274 -100.97,-10.61 -144.459,-0.017Zm184.161,108.587c-37.656,0 -80.545,-8.809 -121.294,-24.965c-38.476,-15.26 -76.723,-38.188 -104.648,-67.703c-16.891,9.571 -30.08,22.337 -37.723,38.772c-4.717,10.154 -16.765,14.558 -26.918,9.849c-10.154,-4.717 -14.559,-16.773 -9.85,-26.927c10.306,-22.167 27.215,-40.428 49.83,-54.31c-15.801,-27.215 -22.734,-58.436 -15.607,-93.124c5.986,-29.134 23.165,-53.313 50.583,-71.727c2.544,-26.048 16.841,-50.649 41.722,-71.599c58.901,-49.593 169.711,-73.815 263.453,-57.608c11.032,1.911 18.43,12.394 16.528,23.427c-1.911,11.041 -12.42,18.422 -23.427,16.528c-81.66,-14.127 -180.728,6.806 -230.439,48.663c-6.299,5.309 -11.54,10.737 -15.7,16.258c5.352,-1.7 10.915,-3.281 16.664,-4.735c53.389,-13.518 120.854,-15.141 185.073,-4.447c65.825,10.957 116.974,33.192 140.325,61.007c16.536,19.69 20.18,42.711 10.263,64.819c-24.078,53.668 -136.63,50.438 -225.705,31.382c-45.932,-9.832 -88.11,-24.441 -118.749,-41.138c-22.64,-12.335 -38.974,-25.642 -48.908,-39.812c-10.788,9.833 -18.87,22.024 -21.973,37.14c-5.098,24.822 0.533,47.598 13.003,67.82c22.573,-7.659 48.595,-12.334 77.577,-13.772c87.832,-4.303 205.287,23.901 233.372,71.397c8.742,14.787 8.768,30.706 0.068,44.816c-15.623,25.355 -47.927,39.169 -93.428,39.955c-1.362,0.017 -2.723,0.034 -4.092,0.034Z" style="fill:#5f5c5d;fill-rule:nonzero;"/><path d="M1349.69,733.866c-28.474,136.056 58.749,269.431 194.812,297.905c136.055,28.465 269.439,-58.758 297.905,-194.813c28.465,-136.063 -58.749,-269.439 -194.813,-297.904c-136.064,-28.474 -269.439,58.749 -297.904,194.812Z" style="fill:#ffffa1;fill-rule:nonzero;"/><path d="M1596.6,1057.46c-18.701,0 -37.52,-1.936 -56.247,-5.85c-146.082,-30.571 -239.755,-175.731 -208.813,-323.589l39.676,8.294c-26.36,125.986 53.237,249.622 177.431,275.611c15.911,3.331 31.813,4.928 47.462,4.937c107.201,-0 203.656,-75.074 226.457,-184.059c12.657,-60.507 1.007,-122.325 -32.828,-174.057c-33.834,-51.741 -85.786,-87.198 -146.293,-99.863c-75.379,-15.775 -153.403,6.882 -208.745,60.584l-28.229,-29.091c65.022,-63.095 156.726,-89.709 245.276,-71.169c71.109,14.88 132.158,56.551 171.919,117.355c39.76,60.795 53.456,133.434 38.585,204.543c-14.88,71.101 -56.559,132.158 -117.354,171.919c-44.791,29.285 -96.007,44.435 -148.297,44.435Z" style="fill:#f9cb71;fill-rule:nonzero;"/><path d="M1577.84,705.249c-18.245,17.314 -20.849,45.306 -5.825,62.528c15.031,17.213 41.992,17.136 60.228,-0.178c18.236,-17.314 20.848,-45.307 5.817,-62.528c-15.024,-17.213 -41.984,-17.137 -60.22,0.178Z" style="fill:#5f5c5d;fill-rule:nonzero;"/><path d="M1487.13,607.559c-20.746,14.161 -27.764,41.367 -15.682,60.753c12.089,19.394 38.712,23.638 59.459,9.477c20.747,-14.161 27.764,-41.367 15.683,-60.753c-12.09,-19.394 -38.713,-23.638 -59.46,-9.477Z" style="fill:#5f5c5d;fill-rule:nonzero;"/><path d="M1420.28,605.226c-3.932,185.572 226.482,235.283 226.482,235.283c0,-0 -123.534,120.516 -250.408,16.393c-106.676,-87.553 23.926,-251.676 23.926,-251.676Z" style="fill:#e27fa3;fill-rule:nonzero;"/><path d="M1404.39,654.396c-16.029,22.463 -32.929,54.217 -34.477,89.649c-1.521,34.891 12.344,68.193 41.224,98.992c26.005,27.73 55.654,42.145 88.119,42.838c40.978,0.828 79.623,-19.707 104.63,-36.962c-22.632,-7.956 -52.577,-20.544 -82.573,-39.254c-64.515,-40.242 -104.25,-93.276 -116.923,-155.263Zm97.411,272.051c-1.057,0 -2.097,-0.017 -3.154,-0.034c-43.878,-0.871 -83.266,-19.588 -117.075,-55.646c-36.709,-39.143 -54.251,-82.48 -52.146,-128.793c3.906,-85.651 74.389,-149.235 77.382,-151.898c6.028,-5.361 14.643,-6.637 21.964,-3.247c7.322,3.373 11.938,10.771 11.769,18.828c-1.463,68.995 32.625,125.868 101.325,169.035c53.473,33.606 108.637,45.89 109.187,46.009c7.271,1.589 13.096,7.025 15.167,14.177c2.063,7.144 0.059,14.846 -5.233,20.071c-3.002,2.951 -73.561,71.498 -159.186,71.498Z" style="fill:#dd528b;fill-rule:nonzero;"/><path d="M1646.74,641.097c-2.866,0 -5.782,-0.608 -8.555,-1.902c-10.129,-4.726 -14.516,-16.765 -9.816,-26.902c0.313,-0.667 30.816,-67.888 18.439,-141.964c-1.843,-11.042 5.613,-21.491 16.655,-23.334c11.041,-1.877 21.482,5.605 23.334,16.646c14.499,86.843 -20.189,162.568 -21.669,165.756c-3.441,7.372 -10.754,11.7 -18.388,11.7Z" style="fill:#dd528b;fill-rule:nonzero;"/><path d="M1712.69,686.852c-3.627,-0 -7.296,-0.972 -10.61,-3.018c-9.477,-5.868 -12.47,-18.245 -6.662,-27.756c0.778,-1.276 19.504,-31.45 58.977,-54.64c35.965,-21.119 96.912,-40.648 183.078,-13.755c10.687,3.331 16.647,14.702 13.307,25.388c-3.331,10.686 -14.702,16.655 -25.379,13.307c-135.269,-42.212 -193.054,47.099 -195.447,50.929c-3.855,6.146 -10.483,9.545 -17.264,9.545Z" style="fill:#dd528b;fill-rule:nonzero;"/><path d="M1953.33,871.063c-7.566,-0 -14.829,-4.253 -18.312,-11.532c-49.872,-104.368 -173.592,-93.741 -178.834,-93.225c-11.168,1.031 -21.042,-7.068 -22.133,-18.194c-1.099,-11.118 6.992,-21.026 18.109,-22.15c6.4,-0.626 157.14,-14.263 219.44,116.086c4.827,10.103 0.55,22.201 -9.545,27.028c-2.824,1.353 -5.8,1.987 -8.725,1.987Z" style="fill:#dd528b;fill-rule:nonzero;"/><path d="M1474.62,343.472c19.276,6.417 40.335,-2.317 49.415,-20.493l64.87,-129.926c11.092,-22.21 -0.05,-49.111 -23.613,-56.957l-38.881,-12.952c-23.554,-7.846 -48.604,6.992 -53.051,31.416l-25.997,142.886c-3.635,19.986 7.99,39.601 27.257,46.026Z" style="fill:#e27fa3;fill-rule:nonzero;"/><path d="M1377.48,358.258c19.327,-6.264 31.103,-25.785 27.629,-45.797l-24.831,-143.097c-4.244,-24.459 -29.167,-39.499 -52.788,-31.848l-38.983,12.64c-23.621,7.651 -34.993,34.442 -24.078,56.753l63.805,130.459c8.927,18.244 29.919,27.155 49.246,20.89Z" style="fill:#e27fa3;fill-rule:nonzero;"/><path d="M1543.5,413.558c-11.709,-16.604 -9.435,-39.287 5.352,-53.22l105.67,-99.625c18.067,-17.036 47.032,-14.119 61.345,6.171l23.621,33.488c14.313,20.282 7.347,48.544 -14.761,59.856l-129.292,66.138c-18.092,9.249 -40.226,3.796 -51.935,-12.808Z" style="fill:#e27fa3;fill-rule:nonzero;"/></g></svg>