<?xml version="1.0" encoding="UTF-8" standalone="no"?><!DOCTYPE svg PUBLIC "-//W3C//DTD SVG 1.1//EN" "http://www.w3.org/Graphics/SVG/1.1/DTD/svg11.dtd"><svg width="100%" height="100%" viewBox="0 0 2084 2084" version="1.1" xmlns="http://www.w3.org/2000/svg" xmlns:xlink="http://www.w3.org/1999/xlink" xml:space="preserve" xmlns:serif="http://www.serif.com/" style="fill-rule:evenodd;clip-rule:evenodd;stroke-linejoin:round;stroke-miterlimit:2;"><g><path d="M1762.78,470.1c-71.361,-71.369 -298.721,58.453 -398.85,121.381c-49.562,-8.238 -113.486,-11.621 -186.697,-11.295c-73.22,-0.326 -137.162,3.057 -186.724,11.304c-100.164,-62.99 -327.506,-192.715 -398.832,-121.39c-70.832,70.832 10.045,265.301 51.572,351.949c-49.113,82.964 -67.052,173.824 -67.052,252.066c-0,67.66 8.062,135.232 24.265,202.804c31.641,131.884 135.919,233.158 268.834,260.075c23.975,4.847 47.941,9.111 71.916,12.82l-263.829,67.546c-81.564,177.384 114.12,338.432 227.095,297.575c51.087,54.047 144.695,90.269 251.758,90.269c135.655,0 249.723,-58.135 283.02,-137.02l215.174,-215.175l-226.602,-105.503c19.111,-3.146 38.222,-6.644 57.333,-10.512c132.915,-26.917 237.194,-128.191 268.834,-260.075c16.204,-67.572 24.266,-135.144 24.266,-202.804c-0,-78.224 -17.922,-169.057 -67.017,-252.005c41.43,-86.568 122.394,-281.151 51.536,-352.01Z" style="fill:#b2b8c4;fill-rule:nonzero;"/><path d="M1249.9,628.479c-0,111.988 -32.584,202.716 -72.63,202.716c-40.134,-0 -72.717,-90.728 -72.717,-202.716c-0,-15.349 0.599,-30.275 1.797,-44.593c47.245,-2.141 94.498,-2.141 141.743,0.088c1.207,14.318 1.807,29.244 1.807,44.505Z" style="fill:#95a1b3;fill-rule:nonzero;"/><path d="M1405.8,602.671c-2.061,106.755 -33.781,191.737 -72.541,191.737c-40.134,0 -72.638,-90.815 -72.638,-202.715c-0,-2.406 -0,-4.723 0.088,-7.12c25.984,1.375 52.056,3.516 78.039,6.256c22.891,2.406 45.271,6.432 67.052,11.842Z" style="fill:#95a1b3;fill-rule:nonzero;"/><path d="M1679.17,642.374c-0,-0 11.578,26.239 13.463,55.651c1.806,27.182 -14.573,47.94 -36.011,56.593c-45.024,-51.192 -100.587,-93.036 -163.357,-122.104c0.6,-14.749 6.776,-29.243 18.777,-40.134c48.196,-43.817 114.825,-91.071 161.991,-71.854c82.145,33.526 5.137,121.848 5.137,121.848Z" style="fill:#fff;fill-rule:nonzero;"/><path d="M1019.14,1581.08c-0.731,0 -1.471,-0.035 -2.211,-0.114c-50.364,-5.225 -101.442,-13.041 -151.832,-23.226c-139.849,-28.328 -251.793,-136.624 -285.214,-275.883c-16.485,-68.761 -24.847,-138.651 -24.847,-207.738c0,-79.229 18.213,-230.55 140.193,-353.772c8.22,-8.3 21.613,-8.362 29.913,-0.15c8.309,8.221 8.379,21.622 0.159,29.922c-111.328,112.465 -127.954,251.274 -127.954,324c-0,65.766 7.965,132.342 23.684,197.87c29.596,123.319 128.685,219.201 252.463,244.277c49.051,9.912 98.78,17.525 147.805,22.609c11.622,1.207 20.063,11.613 18.856,23.235c-1.128,10.882 -10.309,18.97 -21.015,18.97Z" style="fill:#6f818c;fill-rule:nonzero;"/><path d="M1777.71,455.122c-74.488,-74.489 -267.097,19.851 -418.322,114.244c-47.535,-7.208 -108.463,-10.706 -182.062,-10.336c-104.314,-0.458 -183.261,6.67 -234.506,21.217c-31.755,9.04 -62.171,20.063 -90.401,32.76c-10.662,4.793 -15.411,17.313 -10.618,27.975c4.794,10.652 17.314,15.41 27.975,10.617c26.363,-11.86 54.84,-22.169 84.622,-30.654c47.403,-13.454 122.297,-20.045 222.928,-19.604c100.455,-0.414 175.331,6.15 222.717,19.604c29.816,8.494 58.294,18.803 84.63,30.654c2.819,1.269 5.771,1.859 8.67,1.859c8.071,0 15.78,-4.643 19.305,-12.476c4.793,-10.653 0.044,-23.182 -10.609,-27.975c-25.939,-11.666 -53.809,-21.852 -82.85,-30.469c166.194,-98.49 290.236,-135.875 328.599,-97.494c39.747,39.738 24.689,148.122 -39.72,293.293c-14.08,-19.745 -30.24,-39.2 -48.84,-57.994c-8.229,-8.3 -21.622,-8.362 -29.922,-0.15c-8.309,8.221 -8.37,21.622 -0.158,29.922c111.327,112.456 127.953,251.265 127.953,324c0,65.766 -7.974,132.342 -23.684,197.861c-29.587,123.328 -128.685,219.21 -252.445,244.286c-7.806,1.577 -15.613,3.093 -23.42,4.555c-11.48,2.141 -19.049,13.19 -16.908,24.68c1.903,10.168 10.785,17.27 20.776,17.27c1.287,-0 2.591,-0.115 3.904,-0.362c8.009,-1.497 16.018,-3.048 24.036,-4.669c139.84,-28.328 251.785,-136.624 285.205,-275.883c16.485,-68.761 24.847,-138.651 24.847,-207.738c0,-58.505 -9.983,-156.317 -64.294,-253.097c50.804,-108.552 118.13,-290.359 42.592,-365.896Z" style="fill:#6f818c;fill-rule:nonzero;"/><path d="M1499.37,1178.96c-0,-37.236 -30.187,-67.422 -67.423,-67.422c-37.235,-0 -67.422,30.186 -67.422,67.422c0,37.235 30.187,67.422 67.422,67.422c37.236,-0 67.423,-30.187 67.423,-67.422Z" style="fill:#5f5c5d;fill-rule:nonzero;"/><path d="M989.935,1178.96c-0,-37.236 -30.187,-67.422 -67.422,-67.422c-37.236,-0 -67.423,30.186 -67.423,67.422c0,37.235 30.187,67.422 67.423,67.422c37.235,-0 67.422,-30.187 67.422,-67.422Z" style="fill:#5f5c5d;fill-rule:nonzero;"/><path d="M1602.55,1297.85l-106.526,-0c-11.683,-0 -21.155,-9.481 -21.155,-21.155c0,-11.684 9.472,-21.165 21.155,-21.165l106.526,0c11.683,0 21.164,9.481 21.164,21.165c0,11.674 -9.481,21.155 -21.164,21.155Z" style="fill:#95a1b3;fill-rule:nonzero;"/><path d="M1583.18,1397.93c-2.44,-0 -4.925,-0.423 -7.348,-1.322l-87.159,-32.284c-10.961,-4.061 -16.556,-16.23 -12.494,-27.19c4.053,-10.953 16.212,-16.548 27.191,-12.486l87.159,32.284c10.961,4.053 16.556,16.23 12.494,27.182c-3.163,8.538 -11.243,13.816 -19.843,13.816Z" style="fill:#95a1b3;fill-rule:nonzero;"/><path d="M858.439,1297.85l-106.535,-0c-11.683,-0 -21.155,-9.481 -21.155,-21.155c0,-11.684 9.472,-21.165 21.155,-21.165l106.535,0c11.683,0 21.155,9.481 21.155,21.165c-0,11.674 -9.472,21.155 -21.155,21.155Z" style="fill:#95a1b3;fill-rule:nonzero;"/><path d="M771.271,1397.93c-8.591,-0 -16.679,-5.278 -19.842,-13.816c-4.054,-10.952 1.533,-23.129 12.494,-27.182l87.167,-32.284c10.97,-4.062 23.129,1.533 27.191,12.486c4.053,10.96 -1.533,23.129 -12.494,27.19l-87.168,32.284c-2.423,0.899 -4.907,1.322 -7.348,1.322Z" style="fill:#95a1b3;fill-rule:nonzero;"/><path d="M1389.11,1049.56l-55.888,-0c-11.684,-0 -21.156,-9.472 -21.156,-21.156c0,-11.683 9.472,-21.155 21.156,-21.155l55.888,0c11.684,0 21.155,9.472 21.155,21.155c0,11.684 -9.471,21.156 -21.155,21.156Z" style="fill:#fff;fill-rule:nonzero;"/><path d="M1021.23,1049.56l-55.879,-0c-11.684,-0 -21.155,-9.472 -21.155,-21.156c-0,-11.683 9.471,-21.155 21.155,-21.155l55.879,0c11.684,0 21.165,9.472 21.165,21.155c-0,11.684 -9.481,21.156 -21.165,21.156Z" style="fill:#fff;fill-rule:nonzero;"/><path d="M1294.73,1303.92c0,14.027 -4.185,24.186 -11.639,31.578c-18.979,18.847 -59.237,19.746 -105.865,19.746c-46.496,0 -86.753,-0.899 -105.794,-19.746c-7.525,-7.392 -11.719,-17.551 -11.719,-31.578c0,-31.315 20.979,-58.84 52.69,-74.982c18.583,-9.455 40.901,-14.926 64.823,-14.926c60.779,-0 110.746,35.244 116.861,80.586c0.379,3.022 0.643,6.176 0.643,9.322Z" style="fill:#6f818c;fill-rule:nonzero;"/><path d="M1283.09,1335.5c-18.979,18.847 -59.237,19.746 -105.865,19.746c-46.496,0 -86.753,-0.899 -105.794,-19.746c9.128,-14.599 23.411,-27.076 40.971,-35.949c18.583,-9.454 40.901,-14.917 64.823,-14.917c46.628,0 86.948,20.768 105.865,50.866Z" style="fill:#e27fa3;fill-rule:nonzero;"/><path d="M1177.25,1334.05c-81.784,-0 -96.332,-7.904 -96.332,-30.161c0,-37.878 43.21,-68.69 96.332,-68.69c53.121,-0 96.331,30.812 96.331,68.69c-0,22.257 -14.547,30.161 -96.331,30.161Zm21.137,-139.876l0,-25.375l8.759,-0c11.683,-0 21.155,-9.481 21.155,-21.165c-0,-11.674 -9.472,-21.155 -21.155,-21.155l-59.836,0c-11.684,0 -21.156,9.481 -21.156,21.155c0,11.684 9.472,21.165 21.156,21.165l8.767,-0l-0,25.375c-66.436,8.186 -117.478,54.268 -117.478,109.715c0,22.407 8.556,51.774 49.28,64.471c23.808,7.419 53.289,8.009 89.371,8.009c36.081,0 65.563,-0.59 89.37,-8.009c40.725,-12.697 49.28,-42.064 49.28,-64.471c0,-55.456 -51.06,-101.547 -117.513,-109.715Z" style="fill:#6f818c;fill-rule:nonzero;"/><path d="M992.895,1687.75c-11.392,-38.839 10.97,-79.343 49.897,-90.41c9.322,-2.643 18.741,-3.366 27.772,-2.361l-21.472,-75.555l-75.475,21.446c1.515,-15.049 -1.296,-30.918 -10.089,-45.535c-14.855,-24.662 -43.659,-38.496 -72.18,-34.399c-44.531,6.415 -71.872,50.109 -59.986,91.926c2.626,9.243 7.049,17.605 12.591,24.865l-75.475,21.446l58.179,204.725c11.913,41.905 55.554,66.232 97.371,54.346l204.813,-58.206l-21.473,-75.554c-8.608,6.722 -18.952,11.71 -30.6,14.044c-36.293,7.19 -73.335,-15.26 -83.873,-50.778Z" style="fill:#ffffa1;fill-rule:nonzero;"/><path d="M794.611,1613.74l52.4,184.371c8.705,30.627 40.654,48.487 71.237,39.782l184.459,-52.426l-8.494,-29.896c-4.335,1.56 -8.784,2.802 -13.296,3.701c-47.059,9.313 -94.639,-19.446 -108.305,-65.51c-0.009,-0.018 -0.017,-0.036 -0.017,-0.062c-7.111,-24.231 -4.327,-49.721 7.85,-71.784c12.177,-22.063 32.266,-38.011 56.576,-44.918c1.991,-0.573 4,-1.075 6.018,-1.507l-8.512,-29.931l-55.122,15.666c-6.74,1.921 -14,0.37 -19.375,-4.133c-5.366,-4.502 -8.168,-11.366 -7.463,-18.344c1.163,-11.534 -1.313,-22.777 -7.172,-32.513c-10.503,-17.446 -31.041,-27.226 -51.034,-24.362c-15.164,2.185 -28.054,10.37 -36.284,23.058c-8.106,12.494 -10.423,27.861 -6.37,42.152c1.789,6.274 4.837,12.265 9.067,17.807c4.247,5.56 5.462,12.873 3.251,19.508c-2.203,6.643 -7.551,11.763 -14.292,13.683l-55.122,15.658Zm107.945,268.675c-43.58,-0 -83.749,-28.759 -96.243,-72.727l-58.189,-204.733c-1.533,-5.392 -0.863,-11.181 1.877,-16.08c2.732,-4.908 7.296,-8.52 12.697,-10.054l50.205,-14.265c-0.696,-1.947 -1.33,-3.921 -1.894,-5.903c-7.401,-26.037 -3.181,-54.012 11.578,-76.753c14.749,-22.741 38.706,-38.011 65.747,-41.905c36.646,-5.261 74.145,12.591 93.318,44.425c5.445,9.049 9.278,18.794 11.437,28.927l50.214,-14.274c5.41,-1.533 11.19,-0.864 16.089,1.876c4.908,2.732 8.52,7.296 10.054,12.688l21.472,75.564c1.921,6.776 0.353,14.071 -4.203,19.446c-4.546,5.383 -11.498,8.141 -18.485,7.366c-6.547,-0.74 -13.155,-0.168 -19.649,1.683c-13.366,3.797 -24.407,12.564 -31.094,24.671c-6.67,12.088 -8.194,26.072 -4.309,39.385c7.41,24.9 34.037,41.06 59.484,36.02c7.947,-1.595 15.26,-4.943 21.684,-9.966c5.551,-4.326 12.899,-5.621 19.586,-3.436c6.697,2.185 11.86,7.551 13.79,14.327l21.472,75.554c3.19,11.243 -3.33,22.944 -14.564,26.134l-204.813,58.206c-9.084,2.59 -18.257,3.815 -27.261,3.824Z" style="fill:#f9cb71;fill-rule:nonzero;"/><path d="M1396.39,1691.72c12.247,-38.574 -9.207,-79.563 -47.888,-91.485c-9.26,-2.855 -18.662,-3.78 -27.711,-2.978l23.147,-75.061l74.982,23.12c-1.181,-15.084 1.982,-30.891 11.093,-45.306c15.402,-24.328 44.505,-37.518 72.929,-32.795c44.381,7.401 70.744,51.694 57.933,93.247c-2.829,9.173 -7.446,17.446 -13.138,24.574l74.974,23.112l-62.709,203.385c-12.837,41.632 -57.007,64.981 -98.551,52.17l-203.465,-62.735l23.138,-75.061c8.459,6.917 18.697,12.133 30.284,14.723c36.116,7.992 73.66,-13.63 84.982,-48.91Z" style="fill:#ffffa1;fill-rule:nonzero;"/><path d="M1284.43,1786.98l183.252,56.506c14.697,4.528 30.293,3.057 43.914,-4.159c13.64,-7.216 23.649,-19.296 28.187,-34.028l56.479,-183.164l-54.752,-16.891c-6.696,-2.062 -11.93,-7.296 -13.992,-13.992c-2.062,-6.688 -0.678,-13.966 3.692,-19.437c4.353,-5.437 7.525,-11.358 9.454,-17.596c4.37,-14.195 2.397,-29.605 -5.436,-42.284c-7.948,-12.864 -20.645,-21.332 -35.764,-23.852c-19.966,-3.313 -40.672,6.018 -51.571,23.235c-6.062,9.595 -8.785,20.776 -7.877,32.337c0.546,6.987 -2.397,13.789 -7.877,18.168c-5.463,4.388 -12.75,5.762 -19.455,3.701l-54.761,-16.882l-9.163,29.728c2,0.485 3.991,1.031 5.982,1.639c24.143,7.445 43.87,23.843 55.563,46.179c11.674,22.318 13.895,47.861 6.247,71.933c-0,0.026 -0.009,0.044 -0.018,0.07c-14.688,45.739 -62.867,73.449 -109.697,63.088c-4.503,-1.005 -8.935,-2.344 -13.243,-4.001l-9.164,29.702Zm200.31,101.415c-9.877,0 -19.816,-1.48 -29.525,-4.476l-203.465,-62.734c-11.164,-3.445 -17.428,-15.287 -13.983,-26.451l23.146,-75.061c2.071,-6.732 7.358,-11.992 14.107,-14.027c6.723,-2.027 14.045,-0.582 19.508,3.876c6.3,5.164 13.533,8.679 21.481,10.45c25.261,5.604 52.285,-9.974 60.232,-34.706c4.186,-13.217 2.97,-27.235 -3.436,-39.465c-6.414,-12.256 -17.252,-21.261 -30.539,-25.349c-6.45,-1.992 -13.032,-2.714 -19.596,-2.124c-7.031,0.635 -13.886,-2.291 -18.318,-7.771c-4.441,-5.481 -5.851,-12.803 -3.771,-19.534l23.146,-75.07c1.648,-5.366 5.366,-9.851 10.327,-12.468c4.961,-2.626 10.767,-3.163 16.124,-1.515l49.888,15.384c2.388,-10.08 6.432,-19.737 12.071,-28.654c19.887,-31.411 57.766,-48.434 94.279,-42.355c26.953,4.494 50.566,20.292 64.814,43.36c14.238,23.058 17.842,51.121 9.868,76.982c-0.608,1.973 -1.286,3.929 -2.027,5.859l49.88,15.384c5.357,1.648 9.842,5.366 12.467,10.327c2.626,4.96 3.164,10.758 1.516,16.124l-62.717,203.385c-7.868,25.526 -25.208,46.47 -48.831,58.964c-14.617,7.745 -30.565,11.665 -46.646,11.665Z" style="fill:#f9cb71;fill-rule:nonzero;"/><path d="M663.723,1749.8c30.213,50.61 72.454,81.035 123.064,50.822c50.611,-30.213 67.14,-95.723 36.927,-146.334c-30.204,-50.602 -95.723,-67.131 -146.333,-36.927c-50.602,30.213 -43.871,81.837 -13.658,132.439Z" style="fill:#b2b8c4;fill-rule:nonzero;"/><path d="M688.227,1635.53c13.437,-8.018 28.46,-12.132 43.703,-12.132c7.031,-0 14.097,0.881 21.085,2.634c22.159,5.595 40.821,19.481 52.531,39.103c24.186,40.514 10.908,93.142 -29.605,117.319c-12.415,7.419 -50.197,29.976 -94.049,-43.5c-14.063,-23.543 -21.147,-45.059 -20.504,-62.223c0.661,-17.569 9.19,-30.663 26.839,-41.201Zm252.542,259.424c-6.203,-9.904 -19.27,-12.9 -29.164,-6.688c-25.138,15.754 -61.413,15.984 -99.512,0.635c-30.328,-12.221 -57.801,-32.002 -79.784,-56.338c4.863,0.881 9.762,1.348 14.696,1.348c16.636,-0 33.659,-4.987 50.629,-15.12c60.54,-36.143 80.392,-114.799 44.249,-175.34c-17.508,-29.332 -45.386,-50.082 -78.507,-58.443c-33.138,-8.353 -67.51,-3.313 -96.833,14.194c-29.834,17.808 -46.24,44.064 -47.439,75.943c-0.942,25.076 7.525,53.077 25.129,83.229c19.64,73.925 78.974,140.325 152.035,169.771c23.816,9.595 47.491,14.371 69.713,14.371c25.217,-0 48.558,-6.15 68.1,-18.398c9.904,-6.203 12.891,-19.261 6.688,-29.164Z" style="fill:#6f818c;fill-rule:nonzero;"/><path d="M1668.66,1628.29c-20.908,-55.105 -57.201,-92.437 -112.305,-71.528c-55.096,20.908 -82.815,82.533 -61.907,137.637c20.909,55.104 82.533,82.824 137.638,61.906c55.104,-20.908 57.483,-72.911 36.574,-128.015Z" style="fill:#b2b8c4;fill-rule:nonzero;"/><path d="M1586.08,1571.99c-6.89,-0 -14.239,1.515 -22.221,4.546c-21.367,8.107 -38.293,24.055 -47.668,44.893c-9.375,20.847 -10.071,44.09 -1.965,65.457c8.106,21.367 24.054,38.293 44.892,47.676c20.838,9.367 44.091,10.071 65.457,1.957c19.217,-7.287 29.896,-18.689 33.615,-35.879c3.639,-16.785 0.414,-39.209 -9.314,-64.849c-9.736,-25.64 -22.203,-44.558 -36.054,-54.708c-8.292,-6.08 -17.059,-9.093 -26.742,-9.093Zm8.08,212.478c-17.843,0 -35.641,-3.78 -52.4,-11.322c-31.146,-14.01 -54.98,-39.315 -67.096,-71.246c-12.115,-31.931 -11.075,-66.673 2.934,-97.829c14.01,-31.147 39.315,-54.972 71.247,-67.096c59.871,-22.724 110.754,7.824 139.593,83.802c28.83,75.977 11.023,132.579 -48.848,155.303c-14.75,5.604 -30.108,8.388 -45.43,8.388Z" style="fill:#6f818c;fill-rule:nonzero;"/><path d="M1235.69,462.109c0,276.86 -154.933,380.249 -484.933,380.249c-329.983,0 -484.925,-103.389 -484.925,-380.249c0,-276.861 154.942,-380.258 484.925,-380.258c330,-0 484.933,103.397 484.933,380.258Z" style="fill:#e6fcfc;fill-rule:nonzero;"/><path d="M750.759,103.015c-329.401,-0 -463.761,104.032 -463.761,359.094c0,255.062 134.36,359.094 463.761,359.094c329.41,-0 463.769,-104.032 463.769,-359.094c0,-255.062 -134.359,-359.094 -463.769,-359.094Zm-0,760.507c-176.785,0 -297.197,-28.785 -378.963,-90.586c-85.529,-64.655 -127.117,-166.326 -127.117,-310.827c-0,-144.501 41.588,-246.172 127.117,-310.827c81.766,-61.801 202.178,-90.587 378.963,-90.587c176.793,0 297.196,28.786 378.972,90.587c85.537,64.655 127.117,166.326 127.117,310.827c-0,144.501 -41.58,246.172 -127.117,310.827c-81.758,61.801 -202.179,90.586 -378.972,90.586Z" style="fill:#95e0e8;fill-rule:nonzero;"/><path d="M1266.32,794.408c-0,36.963 29.966,66.938 66.937,66.938c36.962,-0 66.929,-29.975 66.929,-66.938c-0,-36.971 -29.967,-66.937 -66.929,-66.937c-36.971,-0 -66.937,29.966 -66.937,66.937Z" style="fill:#e6fcfc;fill-rule:nonzero;"/><path d="M1333.26,748.626c-25.244,0 -45.782,20.539 -45.782,45.782c-0,25.235 20.538,45.774 45.782,45.774c25.244,-0 45.782,-20.539 45.782,-45.774c0,-25.243 -20.538,-45.782 -45.782,-45.782Zm0,133.875c-48.575,0 -88.102,-39.526 -88.102,-88.093c0,-48.575 39.527,-88.092 88.102,-88.092c48.575,-0 88.093,39.517 88.093,88.092c-0,48.567 -39.518,88.093 -88.093,88.093Z" style="fill:#95e0e8;fill-rule:nonzero;"/><path d="M1017.95,267.164l0,389.907c0,39.878 -32.328,72.206 -72.207,72.206l-389.915,0c-39.87,0 -72.197,-32.328 -72.197,-72.206l-0,-389.907c-0,-39.878 32.327,-72.206 72.197,-72.206l389.915,-0c39.879,-0 72.207,32.328 72.207,72.206Z" style="fill:#ffffa1;fill-rule:nonzero;"/><path d="M996.781,657.071c-0,28.151 -22.9,51.051 -51.051,51.051l-173.772,-0l0,-24.786c1.287,0.062 2.582,0.088 3.877,0.088c24.257,0 46.813,-9.665 63.545,-27.217c16.706,-17.542 25.27,-40.566 24.107,-64.84c-2.22,-46.205 -41.438,-83.37 -87.696,-83.37c-0.388,-0 -0.775,0.008 -1.163,0.008c-0.89,0.018 -1.78,0.045 -2.67,0.08l0,-24.786l50.725,0c7.023,0 13.587,-3.48 17.517,-9.287c3.938,-5.815 4.731,-13.207 2.123,-19.719c-2.661,-6.661 -3.744,-13.622 -3.225,-20.679c1.675,-22.645 21.552,-41.456 44.311,-41.932c12.344,-0.273 23.957,4.326 32.733,12.926c8.785,8.608 13.622,20.116 13.622,32.425c0,6.009 -1.101,11.762 -3.286,17.093c-2.67,6.529 -1.921,13.957 2.008,19.807c3.93,5.86 10.521,9.366 17.57,9.366l50.725,0l-0,173.772Zm-257.811,-17.208c-5.833,3.938 -9.331,10.511 -9.331,17.543l-0,50.716l-173.833,-0c-28.152,-0 -51.06,-22.9 -51.06,-51.051l-0,-173.772l24.785,0c-0.053,1.296 -0.079,2.591 -0.079,3.886c-0,25.314 10.943,49.404 30.037,66.083c16.071,14.045 36.663,21.649 57.879,21.649c3.965,-0 7.939,-0.265 11.922,-0.802c34.292,-4.635 63.448,-30.275 72.55,-63.801c2.414,-8.917 3.419,-17.992 3.022,-27.015l24.777,0l-0,50.725c-0,7.067 3.524,13.658 9.401,17.587c5.868,3.921 13.314,4.661 19.843,1.965c5.048,-2.079 10.529,-3.181 16.309,-3.26l0.573,0c23.578,0 44.328,19.605 45.456,43.086c0.608,12.6 -3.824,24.539 -12.477,33.614c-8.661,9.093 -20.353,14.098 -32.909,14.098c-5.886,-0 -11.648,-1.119 -17.12,-3.331c-6.511,-2.625 -13.912,-1.85 -19.745,2.08Zm-234.224,-372.716c-0,-28.151 22.908,-51.051 51.06,-51.051l173.833,-0l-0,24.794c-3.674,-0.167 -7.366,-0.106 -11.04,0.194c-44.734,3.621 -80.128,41.641 -80.586,86.551c-0.238,23.596 8.767,45.826 25.349,62.576c16.6,16.767 38.76,26.01 62.391,26.01c1.304,-0 2.599,-0.035 3.886,-0.088l-0,24.856l-50.725,-0c-7.014,-0 -13.578,3.48 -17.517,9.295c-3.938,5.816 -4.731,13.199 -2.123,19.72c2.626,6.564 5.057,16.961 1.736,29.226c-4.706,17.322 -19.728,30.574 -37.386,32.953c-13.392,1.806 -26.274,-2.018 -36.292,-10.767c-9.895,-8.653 -15.569,-21.129 -15.569,-34.231c-0,-5.842 1.127,-11.622 3.348,-17.173c2.608,-6.52 1.824,-13.904 -2.115,-19.719c-3.938,-5.824 -10.503,-9.304 -17.525,-9.304l-50.725,-0l-0,-173.842Zm257.881,17.217c5.833,-3.939 9.331,-10.512 9.331,-17.543l0,-50.725l173.772,-0c28.151,-0 51.051,22.9 51.051,51.051l-0,173.842l-24.786,-0c0.053,-1.313 0.089,-2.635 0.089,-3.956c-0,-23.773 -9.358,-46.029 -26.337,-62.656c-16.979,-16.626 -39.473,-25.411 -63.228,-25.006c-44.725,0.952 -82.33,36.584 -85.617,81.133c-0.264,3.515 -0.317,7.013 -0.158,10.485l-24.786,-0l0,-50.796c0,-7.031 -3.498,-13.604 -9.331,-17.543c-5.833,-3.93 -13.234,-4.714 -19.754,-2.07c-5.463,2.202 -11.225,3.321 -17.12,3.321c-12.247,0 -23.728,-4.775 -32.319,-13.463c-8.582,-8.661 -13.234,-20.16 -13.111,-32.372c0.238,-22.864 18.935,-42.962 41.685,-44.804c7.164,-0.608 14.204,0.485 20.874,3.172c6.511,2.643 13.921,1.859 19.745,-2.07Zm183.103,-110.579l-389.924,0c-51.483,0 -93.371,41.879 -93.371,93.362l0,389.924c0,51.483 41.888,93.37 93.371,93.37l389.924,0c51.483,0 93.361,-41.887 93.361,-93.37l0,-389.924c0,-51.483 -41.878,-93.362 -93.361,-93.362Z" style="fill:#f9cb71;fill-rule:nonzero;"/></g></svg>